# xmcd CD database file
# Copyright (C) 1996 Ti Kan
#
# Track frame offsets:
#	150
#	15660
#	33330
#	48017
#	61690
#	78640
#	90142
#	105872
#	119902
#	133265
#	147415
# Disc length: 2219 seconds
#
# Revision: 1
# Processed by: cddbd v1.4PL0 Copyright (c) Steve Scherf et al.
# Submitted via: CDCOPY 4.900
#
DISCID=8708a90b
DTITLE=Wilkinsons The - Here And Now
DYEAR=1900
DGENRE=
TTITLE0=Jimmy's Got A Girlfriend
TTITLE1=It Was Only A Kiss
TTITLE2=One Of Us Is In Love
TTITLE3=Till You Let Go
TTITLE4=Shame On Me
TTITLE5=Hypothetically
TTITLE6=1999
TTITLE7=Don't Look At Me Like That
TTITLE8=I'll Know Love
TTITLE9=Me, Myself And I
TTITLE10=The Only Rose
EXTD=
EXTT0=
EXTT1=
EXTT2=
EXTT3=
EXTT4=
EXTT5=
EXTT6=
EXTT7=
EXTT8=
EXTT9=
EXTT10=
PLAYORDER=
